#!OML:ASF Y:\EmotionMaleHayes\Project 1\Capture day 1\Session 1\Male1.ASF
:FULLY-SPECIFIED
:DEGREES
1032
root 46.0974 16.8471 -3.22896 533.664 -11.7736 549.492
lowerback 9.97926 2.56887 6.84594
upperback 3.73292 3.71857 1.82626
thorax -1.35614 1.72569 -2.3313
lowerneck -16.8013 10.8096 12.3086
upperneck 31.4888 14.0227 -10.3411
head 15.6527 5.54666 -3.88807
rclavicle -2.48481e-016 3.49861e-014
rhumerus -17.8289 -7.25556 -62.6125
rradius 31.7269
rwrist -0.72773
rhand -15.2889 -35.1645
rfingers 7.12502
rthumb 10.8861 -64.8623
lclavicle -2.48481e-016 3.49861e-014
lhumerus -29.9563 -0.406668 79.2042
lradius 18.2322
lwrist -37.6727
lhand -6.71334 -23.8808
lfingers 7.12502
lthumb 19.1465 5.19676
rfemur 8.99231 -6.74158 22.4726
rtibia 10.8583
rfoot -17.4654 -2.4411
rtoes -6.1418
lfemur -20.8908 11.1457 -14.0616
ltibia 56.7594
lfoot -11.0562 0.952724
ltoes 10.3623
1033
root 46.0841 16.8435 -3.35729 533.779 -12.2081 549.625
lowerback 9.93228 2.62301 7.01504
upperback 3.58003 3.82503 1.86935
thorax -1.47187 1.77793 -2.39285
lowerneck -16.5299 10.6937 11.8272
upperneck 31.2847 13.9564 -10.1548
head 15.4117 5.50361 -3.74487
rclavicle -6.77856e-014 -8.34896e-015
rhumerus -17.3952 -6.82007 -61.9169
rradius 32.2037
rwrist -1.06634
rhand -13.7086 -34.6966
rfingers 7.12502
rthumb 12.4101 -64.3082
lclavicle -6.77856e-014 -8.34896e-015
lhumerus -30.8763 -0.100498 78.4221
lradius 18.538
lwrist -36.714
lhand -6.67146 -23.0669
lfingers 7.12502
lthumb 19.1868 6.00665
rfemur 9.82518 -7.16336 22.4151
rtibia 10.0553
rfoot -17.4483 -2.11869
rtoes -5.76189
lfemur -21.9716 11.4216 -14.2688
ltibia 54.6096
lfoot -11.1424 1.62153
ltoes 9.61514
1034
root 46.0733 16.8387 -3.48607 533.695 -12.5535 550.068
lowerback 9.99155 2.60127 7.47432
upperback 3.52475 3.84363 2.00683
thorax -1.5358 1.7815 -2.51047
lowerneck -16.6803 10.8919 12.1024
upperneck 31.3825 14.3232 -10.6172
head 15.6311 5.61702 -3.90921
rclavicle -2.19657e-014 -1.94809e-014
rhumerus -16.6402 -6.01991 -61.3153
rradius 32.5844
rwrist -1.62299
rhand -13.3004 -34.633
rfingers 7.12502
rthumb 12.8036 -64.2204
lclavicle -2.19657e-014 -1.94809e-014
lhumerus -31.6057 1.7236 76.9344
lradius 18.4834
lwrist -37.3829
lhand -7.49079 -25.2384
lfingers 7.12502
lthumb 18.3987 3.91152
rfemur 10.7314 -7.99874 22.6566
rtibia 9.27952
rfoot -17.1954 -1.95176
rtoes -9.99221
lfemur -22.7698 11.6482 -13.8041
ltibia 52.6301
lfoot -11.7504 1.51669
ltoes 15.1406
1035
root 46.0602 16.8305 -3.61744 533.71 -12.7747 550.46
lowerback 9.92949 2.84675 8.12809
upperback 3.49889 4.2272 1.83449
thorax -1.42534 1.98267 -3.08222
lowerneck -16.7467 10.6466 12.1923
upperneck 31.0755 13.8993 -10.4853
head 15.4252 5.49623 -3.93894
rclavicle -1.98785e-014 2.66371e-014
rhumerus -16.1971 -6.30887 -60.816
rradius 32.8528
rwrist -1.85315
rhand -13.4825 -34.6047
rfingers 7.12502
rthumb 12.628 -64.203
lclavicle -1.98785e-014 2.66371e-014
lhumerus -31.9694 1.60921 75.7327
lradius 18.6729
lwrist -36.734
lhand -8.12381 -26.0682
lfingers 7.12502
lthumb 17.7897 3.13809
rfemur 11.4856 -9.02931 22.6933
rtibia 8.65012
rfoot -17.0874 -1.60103
rtoes -14.1639
lfemur -23.5061 12.2217 -13.8238
ltibia 50.3861
lfoot -12.0982 3.01619
ltoes 5.87258
1036
root 46.0496 16.8205 -3.75128 533.836 -12.9853 550.755
lowerback 9.76492 3.04864 8.50299
upperback 3.43063 4.52499 1.74708
thorax -1.33406 2.13976 -3.39754
lowerneck -16.7358 10.5015 12.215
upperneck 30.7945 13.672 -10.4282
head 15.2492 5.43452 -3.95241
rclavicle -2.46493e-014 -3.97569e-016
rhumerus -15.678 -6.25889 -60.236
rradius 33.1271
rwrist -2.07842
rhand -14.1273 -34.6365
rfingers 7.12502
rthumb 12.0063 -64.2721
lclavicle -2.46493e-014 -3.97569e-016
lhumerus -32.1204 -1.08046 75.8942
lradius 18.4102
lwrist -32.6825
lhand -8.63038 -25.0698
lfingers 7.12502
lthumb 17.3022 4.18006
rfemur 12.1968 -9.48151 22.8485
rtibia 7.93529
rfoot -17.1751 -1.45672
rtoes -15.5341
lfemur -24.2868 12.8177 -13.7576
ltibia 48.0508
lfoot -12.4219 3.65008
ltoes 0.957247
1037
root 46.0437 16.8095 -3.89061 533.902 -13.1535 550.98
lowerback 9.64608 3.1717 8.52351
upperback 3.36243 4.68867 1.823
thorax -1.32584 2.2212 -3.33881
lowerneck -16.7182 10.554 12.3144
upperneck 30.7665 13.817 -10.7074
head 15.2948 5.47097 -4.05758
rclavicle 3.926e-015 4.13472e-014
rhumerus -15.0407 -5.78278 -59.6159
rradius 33.4803
rwrist -2.47
rhand -15.4112 -34.9138
rfingers 7.12502
rthumb 10.7682 -64.6178
lclavicle 3.926e-015 4.13472e-014
lhumerus -33.31 -0.896624 75.0584
lradius 19.8225
lwrist -31.0497
lhand -8.25594 -24.1617
lfingers 7.12502
lthumb 17.6626 5.05607
rfemur 13.07 -9.68218 22.9898
rtibia 7.12019
rfoot -17.1513 -1.04755
rtoes -13.7822
lfemur -24.997 14.0374 -13.9155
ltibia 45.757
lfoot -12.1799 4.98486
ltoes -10.544
1038
root 46.0311 16.7998 -4.02756 533.849 -13.3257 551.17
lowerback 9.68425 3.29758 8.61638
upperback 3.31879 4.873 1.84706
thorax -1.36457 2.31079 -3.38447
lowerneck -17.012 10.7079 12.7867
upperneck 30.9013 14.0025 -11.0232
head 15.5387 5.55316 -4.22621
rclavicle -2.7482e-014 3.65764e-014
rhumerus -14.5594 -5.69888 -59.1145
rradius 33.9271
rwrist -2.86851
rhand -16.1414 -35.163
rfingers 7.12502
rthumb 10.0638 -64.9024
lclavicle -2.7482e-014 3.65764e-014
lhumerus -33.9229 -0.517397 74.0944
lradius 19.8974
lwrist -29.3403
lhand -9.11515 -23.636
lfingers 7.12502
lthumb 16.8356 5.65421
rfemur 14.0264 -9.81289 23.0371
rtibia 6.4183
rfoot -17.2328 -0.471391
rtoes -9.91728
lfemur -25.2018 14.3894 -13.8252
ltibia 42.9444
lfoot -12.3874 5.22657
ltoes -4.30867
1039
root 46.008 16.7817 -4.16162 533.941 -13.5307 551.414
lowerback 9.54786 3.44772 8.98523
upperback 3.24654 5.10246 1.76877
thorax -1.29552 2.43203 -3.6794
lowerneck -17.0104 10.5805 12.6787
upperneck 30.7024 13.8254 -10.934
head 15.3928 5.49343 -4.19727
rclavicle 3.6477e-014 1.19271e-014
rhumerus -14.1661 -6.10994 -58.6936
rradius 34.3405
rwrist -3.08689
rhand -15.8027 -35.1411
rfingers 7.12502
rthumb 10.3905 -64.8644
lclavicle 3.6477e-014 1.19271e-014
lhumerus -34.4421 -1.35994 73.633
lradius 20.1576
lwrist -26.2448
lhand -9.43358 -24.0846
lfingers 7.12502
lthumb 16.529 5.23135
rfemur 14.7071 -9.76949 23.2552
rtibia 5.84046
rfoot -17.6642 -0.406575
rtoes -8.6433
lfemur -25.5581 14.8394 -13.7669
ltibia 39.8776
lfoot -12.2453 5.54271
ltoes -2.76447
1040
root 45.9809 16.7605 -4.29726 534.013 -13.716 551.728
lowerback 9.4159 3.57544 9.39691
upperback 3.15495 5.30681 1.71673
thorax -1.24738 2.53883 -3.9682
lowerneck -17.0677 10.5492 12.7832
upperneck 30.6173 13.7558 -10.9435
head 15.3652 5.48329 -4.22614
rclavicle 5.06901e-015 -4.85035e-014
rhumerus -13.7032 -6.47408 -58.3093
rradius 34.6465
rwrist -3.20528
rhand -15.1239 -34.9466
rfingers 7.12502
rthumb 11.0452 -64.636
lclavicle 5.06901e-015 -4.85035e-014
lhumerus -35.0413 -1.77175 72.9531
lradius 20.5481
lwrist -23.8808
lhand -10.4572 -23.9547
lfingers 7.12502
lthumb 15.5434 5.44059
rfemur 15.3228 -10.0047 23.4277
rtibia 5.42656
rfoot -18.1031 -0.151123
rtoes -8.69122
lfemur -25.6347 14.7632 -13.6369
ltibia 36.4094
lfoot -11.8022 6.26081
ltoes -5.75329
1041
root 45.9512 16.7369 -4.43368 534.096 -13.8739 551.995
lowerback 9.19915 3.36171 9.24056
upperback 3.19178 4.97008 2.16944
thorax -1.18968 2.36079 -3.3704
lowerneck -17.0498 10.921 12.0954
upperneck 30.4381 14.5795 -11.0987
head 15.3583 5.72658 -3.99426
rclavicle 1.49089e-015 -2.22639e-014
rhumerus -12.1478 -5.38079 -57.7923
rradius 34.7879
rwrist -3.54106
rhand -14.3463 -34.7064
rfingers 7.12502
rthumb 11.7952 -64.3542
lclavicle 1.49089e-015 -2.22639e-014
lhumerus -36.2081 0.424459 72.1035
lradius 20.9799
lwrist -22.8866
lhand -11.2472 -24.1245
lfingers 7.12502
lthumb 14.7823 5.32827
rfemur 15.8784 -10.2852 23.4987
rtibia 5.15636
rfoot -18.402 0.307834
rtoes -7.82394
lfemur -25.6256 14.6401 -13.4899
ltibia 32.8784
lfoot -11.5845 6.88068
ltoes -2.40214
